<svg id="svgexport-6_76_" data-name="svgexport-6 (76)" xmlns="http://www.w3.org/2000/svg" width="33.535" height="29.235" viewBox="0 0 33.535 29.235">
  <path id="Path_31" data-name="Path 31" d="M33.535,38.5a1.048,1.048,0,0,0-1.048-1.048H22.459v-3.58a1.048,1.048,0,0,0-1.048-1.048H12.124a1.048,1.048,0,0,0-1.048,1.048v3.58H1.048A1.048,1.048,0,0,0,0,38.5V61.011a1.048,1.048,0,0,0,1.048,1.048H32.487a1.048,1.048,0,0,0,1.048-1.048ZM13.171,34.92h7.192v2.532H13.171ZM2.1,39.548H31.439V41.9L20.291,46.363V45.025a1.048,1.048,0,0,0-1.048-1.048H14.292a1.048,1.048,0,0,0-1.048,1.048v1.342L2.1,41.941Zm16.1,6.525v3.654l-1.428,1.249L15.34,49.727V46.073ZM2.1,59.963V44.2l11.148,4.426V50.2a1.048,1.048,0,0,0,.358.789l2.476,2.166a1.048,1.048,0,0,0,1.38,0l2.476-2.166a1.048,1.048,0,0,0,.358-.789V48.621l11.148-4.459v15.8Z" transform="translate(0 -32.824)" fill="#fff"/>
</svg>
