<svg xmlns="http://www.w3.org/2000/svg" width="32.8" height="38.357" viewBox="0 0 32.8 38.357">
  <path id="Path_30" data-name="Path 30" d="M53.488,5.846A10.556,10.556,0,0,0,42.944,16.39,9.283,9.283,0,0,0,45.7,23.426c1.347,1.542,2.619,3,2.555,7.426a1.2,1.2,0,0,0,1.2,1.212h8.079a1.2,1.2,0,0,0,1.2-1.2c0-.026,0-.05,0-.076-.052-4.381,1.215-5.831,2.556-7.366a9.282,9.282,0,0,0,2.752-7.036A10.556,10.556,0,0,0,53.488,5.846Zm5.987,16a10.9,10.9,0,0,0-3.132,7.82H54.687V22.344l1.889-1.889a1.2,1.2,0,1,0-1.7-1.7l-1.392,1.392L52.1,18.76a1.2,1.2,0,1,0-1.7,1.7l1.889,1.889v7.323H50.633a10.9,10.9,0,0,0-3.132-7.82,6.918,6.918,0,0,1-2.16-5.458,8.147,8.147,0,0,1,16.294,0A6.919,6.919,0,0,1,59.475,21.847Zm-.749,12.165a1.2,1.2,0,0,1-1.2,1.2H49.449a1.2,1.2,0,0,1,0-2.4h8.077A1.2,1.2,0,0,1,58.725,34.012Zm-1.681,3.146a1.2,1.2,0,0,1-1.2,1.2H51.131a1.2,1.2,0,1,1,0-2.4h4.715A1.2,1.2,0,0,1,57.044,37.158ZM52.289,3.884V1.2a1.2,1.2,0,0,1,2.4,0V3.884a1.2,1.2,0,0,1-2.4,0Zm6.419,1.078,1.342-2.325a1.2,1.2,0,0,1,2.076,1.2L60.784,6.16a1.2,1.2,0,0,1-2.076-1.2Zm6.219,6.219a1.2,1.2,0,0,1-1.2-2.076l2.325-1.343a1.2,1.2,0,1,1,1.2,2.076Zm4.961,5.227a1.2,1.2,0,0,1-1.2,1.2H66a1.2,1.2,0,1,1,0-2.4h2.685A1.2,1.2,0,0,1,69.888,16.407Zm-27.718,0a1.2,1.2,0,0,1-1.2,1.2H38.287a1.2,1.2,0,1,1,0-2.4h2.685A1.2,1.2,0,0,1,42.17,16.407Zm.477-5.066a1.193,1.193,0,0,1-.6-.161L39.724,9.837a1.2,1.2,0,0,1,1.2-2.076L43.248,9.1a1.2,1.2,0,0,1-.6,2.237Zm2.2-7.506a1.2,1.2,0,1,1,2.076-1.2l1.343,2.325a1.2,1.2,0,1,1-2.076,1.2Z" transform="translate(-37.088)" fill="#fff"/>
</svg>
