<svg id="svgexport-6_74_" data-name="svgexport-6 (74)" xmlns="http://www.w3.org/2000/svg" width="29.883" height="42.244" viewBox="0 0 29.883 42.244">
  <path id="Path_28" data-name="Path 28" d="M100.3,20.07a19.718,19.718,0,0,0-.356-5.352C98.863,9.448,95.638,4.463,90.617.3a1.32,1.32,0,0,0-1.684,0c-5.021,4.16-8.245,9.144-9.324,14.415a19.718,19.718,0,0,0-.356,5.351,10.327,10.327,0,0,0-3.031,13.6l.141.245a1.32,1.32,0,0,0,1.143.66,1.262,1.262,0,0,0,.644-.177l5.7-3.3v4.873a1.32,1.32,0,0,0,2.64,0V30.775h1.98V40.924a1.32,1.32,0,0,0,2.64,0V30.775h1.9v5.189a1.32,1.32,0,0,0,2.64,0V31.079l5.726,3.3a1.325,1.325,0,0,0,1.794-.46l.141-.233A10.265,10.265,0,0,0,100.3,20.07ZM89.775,3.029A27.876,27.876,0,0,1,93.163,6.6H86.387A27.881,27.881,0,0,1,89.775,3.029Zm-5.2,6.211h10.4A17.974,17.974,0,0,1,95,28.135H84.546A17.975,17.975,0,0,1,84.575,9.241ZM78.052,31.41a7.768,7.768,0,0,1,1.657-8.283,21.974,21.974,0,0,0,2.354,5.968Zm23.469,0-4.028-2.326a21.971,21.971,0,0,0,2.35-5.965A7.627,7.627,0,0,1,101.521,31.411ZM89.794,19.618a4.959,4.959,0,1,0-4.959-4.959A4.964,4.964,0,0,0,89.794,19.618Zm0-7.277a2.318,2.318,0,1,1-2.318,2.318,2.321,2.321,0,0,1,2.318-2.318Z" transform="translate(-74.848 0)" fill="#fff"/>
</svg>
