<svg xmlns="http://www.w3.org/2000/svg" width="20.2" height="18.517" viewBox="0 0 20.2 18.517">
  <path id="envelope" d="M15.992,1H4.208A4.213,4.213,0,0,0,0,5.208v10.1a4.213,4.213,0,0,0,4.208,4.208H15.992A4.213,4.213,0,0,0,20.2,15.308V5.208A4.213,4.213,0,0,0,15.992,1ZM4.208,2.683H15.992a2.525,2.525,0,0,1,2.34,1.588l-6.446,6.446a2.531,2.531,0,0,1-3.572,0L1.869,4.272a2.525,2.525,0,0,1,2.34-1.588Zm11.783,15.15H4.208a2.525,2.525,0,0,1-2.525-2.525V6.471l5.441,5.437a4.214,4.214,0,0,0,5.952,0l5.441-5.437v8.838A2.525,2.525,0,0,1,15.992,17.833Z" transform="translate(0 -1)" fill="#AF1E2C"/>
</svg>
