<svg xmlns="http://www.w3.org/2000/svg" width="9.733" height="18.001" viewBox="0 0 9.733 18.001">
  <g id="facebook" transform="translate(-1149 -6150)">
    <g id="facebook-logo" transform="translate(1149 6150)">
      <path id="Path_90" data-name="Path 90" d="M31.443,0,29.109,0a4.1,4.1,0,0,0-4.317,4.43V6.473H22.444a.367.367,0,0,0-.367.367V9.8a.367.367,0,0,0,.367.367h2.347v7.468a.367.367,0,0,0,.367.367h3.062a.367.367,0,0,0,.367-.367V10.167h2.744A.367.367,0,0,0,31.7,9.8V6.84a.367.367,0,0,0-.367-.367H28.588V4.741c0-.832.2-1.255,1.282-1.255h1.573a.367.367,0,0,0,.367-.367V.371A.367.367,0,0,0,31.443,0Z" transform="translate(-22.077)" fill="#fff"/>
    </g>
  </g>
</svg>
