<svg xmlns="http://www.w3.org/2000/svg" width="18.572" height="18.572" viewBox="0 0 18.572 18.572">
  <g id="insta" transform="translate(-1197 -6150)">
    <g id="instagram-logo" transform="translate(1197 6150)">
      <path id="Path_734" data-name="Path 734" d="M13.447,0H5.125A5.131,5.131,0,0,0,0,5.125v8.322a5.131,5.131,0,0,0,5.125,5.125h8.322a5.131,5.131,0,0,0,5.125-5.125V5.125A5.131,5.131,0,0,0,13.447,0Zm3.478,13.447a3.481,3.481,0,0,1-3.478,3.477H5.125a3.481,3.481,0,0,1-3.477-3.477V5.125A3.481,3.481,0,0,1,5.125,1.648h8.322a3.481,3.481,0,0,1,3.478,3.477v8.322Z" transform="translate(0 0)" fill="#fff"/>
      <path id="Path_735" data-name="Path 735" d="M45.754,40.97a4.785,4.785,0,1,0,4.786,4.786A4.791,4.791,0,0,0,45.754,40.97Zm0,7.923a3.138,3.138,0,1,1,3.138-3.138A3.141,3.141,0,0,1,45.754,48.893Z" transform="translate(-36.467 -36.469)" fill="#fff"/>
      <path id="Path_736" data-name="Path 736" d="M120.129,28.251a1.208,1.208,0,1,0,.855.354A1.213,1.213,0,0,0,120.129,28.251Z" transform="translate(-105.857 -25.148)" fill="#fff"/>
    </g>
  </g>
</svg>
