<svg xmlns="http://www.w3.org/2000/svg" width="20.4" height="20.429" viewBox="0 0 20.4 20.429">
  <path id="map" d="M18.585,1.37,14.886.131A2.512,2.512,0,0,0,13.364.1L7.256,1.778,3.531.2A2.55,2.55,0,0,0,0,2.549V18.488l6.784,1.939,6.817-1.7,6.8,1.656V3.81a2.55,2.55,0,0,0-1.815-2.44Zm-5.836.656V17.184l-5.1,1.275V3.375ZM1.7,2.549a.85.85,0,0,1,1.179-.782L5.949,3.043V18.42L1.7,17.207Zm17,15.664-4.249-1.035V1.778l3.633,1.215a.85.85,0,0,1,.616.817Z" transform="translate(0 0.002)" fill="#AF1E2C"/>
</svg>
