<svg xmlns="http://www.w3.org/2000/svg" width="20.156" height="16.376" viewBox="0 0 20.156 16.376">
  <g id="twitter" transform="translate(-1091 -6152)">
    <path id="twitter-2" data-name="twitter" d="M20.156,49.939a8.616,8.616,0,0,1-2.381.653,4.109,4.109,0,0,0,1.818-2.284,8.258,8.258,0,0,1-2.62,1,4.132,4.132,0,0,0-7.148,2.826,4.255,4.255,0,0,0,.1.942A11.7,11.7,0,0,1,1.4,48.753a4.133,4.133,0,0,0,1.27,5.523,4.081,4.081,0,0,1-1.867-.509v.045a4.151,4.151,0,0,0,3.311,4.06,4.125,4.125,0,0,1-1.083.136,3.654,3.654,0,0,1-.782-.071,4.171,4.171,0,0,0,3.861,2.879A8.3,8.3,0,0,1,.989,62.579,7.74,7.74,0,0,1,0,62.522a11.633,11.633,0,0,0,6.339,1.854A11.68,11.68,0,0,0,18.1,52.618c0-.183-.006-.359-.015-.534A8.243,8.243,0,0,0,20.156,49.939Z" transform="translate(1091 6104)" fill="#fff"/>
  </g>
</svg>
