<svg id="whatsapp_bulk" data-name="whatsapp/bulk" xmlns="http://www.w3.org/2000/svg" width="24" height="24" viewBox="0 0 24 24">
  <g id="vuesax_bulk_whatsapp" data-name="vuesax/bulk/whatsapp">
    <g id="whatsapp">
      <g id="Group_16" data-name="Group 16">
        <path id="Vector"
              d="M4.946,18.63A10.009,10.009,0,0,0,10.006,20a10.152,10.152,0,0,0,9.98-10.59A10,10,0,1,0,1.336,15l-.89,3.31a1,1,0,0,0,1.23,1.22Z"
              transform="translate(1.994 2)" fill="#000" opacity="0.4"/>
        <g id="Group">
          <path id="Vector-2" data-name="Vector"
                d="M10,8.19a1.231,1.231,0,0,1-.13.55,2.386,2.386,0,0,1-.34.51,2.279,2.279,0,0,1-.82.59,2.447,2.447,0,0,1-.98.19A4.073,4.073,0,0,1,6.1,9.66a9.159,9.159,0,0,1-1.72-.99,14.45,14.45,0,0,1-1.64-1.4,14.3,14.3,0,0,1-1.4-1.64A8.8,8.8,0,0,1,.36,3.92,4.235,4.235,0,0,1,0,2.28a2.613,2.613,0,0,1,.18-.97A2.233,2.233,0,0,1,.76.47,1.445,1.445,0,0,1,1.8,0a.978.978,0,0,1,.41.09.828.828,0,0,1,.34.28L3.7,2.02a1.614,1.614,0,0,1,.2.35.73.73,0,0,1,.07.31.717.717,0,0,1-.11.36,1.759,1.759,0,0,1-.28.36l-.38.4a.257.257,0,0,0-.08.2.5.5,0,0,0,.02.12.689.689,0,0,1,.04.1,4.009,4.009,0,0,0,.47.64c.23.26.47.53.73.79s.53.51.8.74a3.839,3.839,0,0,0,.65.46c.03.01.06.03.09.04a.328.328,0,0,0,.34-.07l.38-.38A1.606,1.606,0,0,1,7,6.16a.689.689,0,0,1,.36-.11.73.73,0,0,1,.31.07,1.82,1.82,0,0,1,.35.2L9.68,7.5a.844.844,0,0,1,.28.32A3.5,3.5,0,0,1,10,8.19Z"
                transform="translate(7 6.98)" fill="#000"/>
        </g>
      </g>
      <path id="Vector-3" data-name="Vector" d="M0,0H24V24H0Z" fill="none" opacity="0"/>
    </g>
  </g>
</svg>
